/* XPM */
static char *smallicon[]={
"16 16 9 1",
". c None",
"# c #0058c0",
"f c #008000",
"g c #00c000",
"d c #585858",
"a c #58a8ff",
"c c #808080",
"e c #a0a0a0",
"b c #c3c3c3",
"................",
"................",
"................",
"..#..........#..",
"..###......###..",
".#aaa##b###aaa#.",
".#aaaacbbaaaaa#.",
".#aaadccbbeaaa#.",
".fgddddccdddggf.",
".fgggcccccggggf.",
".fgggffffffgggf.",
"..fff......fff..",
"..f..........f..",
"................",
"................",
"................"};
